<?xml version="1.0" encoding="utf-8"?>
<!-- Generator: Adobe Illustrator 27.0.0, SVG Export Plug-In . SVG Version: 6.00 Build 0)  -->
<svg version="1.1" id="레이어_1" xmlns="http://www.w3.org/2000/svg" xmlns:xlink="http://www.w3.org/1999/xlink" x="0px"
	 y="0px" viewBox="0 0 194 194" style="enable-background:new 0 0 194 194;" xml:space="preserve">
<style type="text/css">
	.st0{fill:#4780C2;}
	.st1{fill:#F8B62D;}
	.st2{fill:none;stroke:#524F48;stroke-miterlimit:10;stroke-dasharray:10,2,10,2,10,2;}
	.st3{fill:#E83E24;}
	.st4{font-family:'H2gtrE';}
	.st5{font-size:30px;}
	.st6{fill:#FFFFFF;}
	.st7{font-family:'GyeonggiTitleV';}
	.st8{font-size:25px;}
</style>
<circle class="st0" cx="97" cy="97.45" r="96.09"/>
<path class="st1" d="M181.86,79.23v-22.7H12.14v22.65c9.53,0,17.26,7.73,17.26,17.26s-7.73,17.26-17.26,17.26v22.65h169.71v-22.7
	c-9.15-0.43-16.45-7.96-16.45-17.22S172.7,79.66,181.86,79.23z"/>
<path class="st2" d="M169.73,79.64v-17.4H24.27v17c6.52,2.99,11.06,9.56,11.06,17.21c0,7.65-4.54,14.22-11.06,17.21v17h145.47v-17.4
	c-6.08-3.15-10.25-9.49-10.25-16.82C159.48,89.13,163.65,82.79,169.73,79.64z"/>
<text transform="matrix(1 0 0 1 63.8798 94.4684)" class="st3 st4 st5">40%</text>
<text transform="matrix(1 0 0 1 43.4004 121.1293)" class="st6 st7 st8">COUPON</text>
</svg>
